
<svg width="30px" height="24px" viewBox="-2 0 30 24" version="1.1" xmlns="http://www.w3.org/2000/svg" xmlns:xlink="http://www.w3.org/1999/xlink">
    <!-- Generator: Sketch 39.1 (31720) - http://www.bohemiancoding.com/sketch -->
    <desc>Created with Sketch.</desc>
    <defs></defs>
    <g id="Page-1" stroke="none" stroke-width="1" fill="none" fill-rule="evenodd" transform="translate(0.000000, 2.487273)">
        <polyline id="Stroke-1" stroke="#EF5222" stroke-width="2.19719173" stroke-linecap="round" stroke-linejoin="round" points="0 4.16134833e-05 5.06586101 4.16134833e-05 9.5942579 14.0099143 24.6656119 14.0099143 26.7442875 2.82379388 10.0305406 2.82379388"></polyline>
        <path d="M11.8415739,18.6815411 C11.8415739,17.4557466 10.8279206,16.4621553 9.57737548,16.4621553 C8.32683037,16.4621553 7.31317703,17.4557466 7.31317703,18.6815411 C7.31317703,19.9073356 8.32683037,20.9009269 9.57737548,20.9009269 C10.8279206,20.9009269 11.8415739,19.9073356 11.8415739,18.6815411" id="Fill-3" fill="#EF5222"></path>
        <path d="M27.2935113,18.6815411 C27.2935113,17.4557466 26.279858,16.4621553 25.0293129,16.4621553 C23.7787678,16.4621553 22.7651144,17.4557466 22.7651144,18.6815411 C22.7651144,19.9073356 23.7787678,20.9009269 25.0293129,20.9009269 C26.279858,20.9009269 27.2935113,19.9073356 27.2935113,18.6815411" id="Fill-5" fill="#EF5222"></path>
    </g>
</svg>