<?xml version="1.0" encoding="utf-8"?>
<!-- Generator: Adobe Illustrator 16.0.4, SVG Export Plug-In . SVG Version: 6.00 Build 0)  -->
<!DOCTYPE svg PUBLIC "-//W3C//DTD SVG 1.1//EN" "http://www.w3.org/Graphics/SVG/1.1/DTD/svg11.dtd">
<svg version="1.1" id="Layer_1" xmlns="http://www.w3.org/2000/svg" xmlns:xlink="http://www.w3.org/1999/xlink" x="0px" y="0px"
	 width="30px" height="23px" viewBox="0 0 30 23" enable-background="new 0 0 30 23" xml:space="preserve">
<title>Cart</title>
<desc>Created with Sketch.</desc>
<path d="M25.966,16.796H10.894c-0.477,0-0.899-0.308-1.045-0.761L5.566,2.786H1.3c-0.607,0-1.099-0.492-1.099-1.099
	S0.693,0.589,1.3,0.589h5.066c0.477,0,0.899,0.307,1.045,0.761l4.282,13.249h13.359l1.671-8.989H11.331
	c-0.607,0-1.099-0.492-1.099-1.099s0.492-1.099,1.099-1.099h16.714c0.326,0,0.636,0.146,0.845,0.396s0.295,0.582,0.235,0.903
	l-2.079,11.187C26.949,16.418,26.495,16.796,25.966,16.796z"/>
<path d="M13.142,20.369c0-1.227-1.014-2.22-2.264-2.22s-2.264,0.993-2.264,2.22c0,1.226,1.014,2.219,2.264,2.219
	S13.142,21.595,13.142,20.369"/>
<path d="M28.594,20.369c0-1.227-1.014-2.22-2.265-2.22s-2.265,0.993-2.265,2.22c0,1.226,1.014,2.219,2.265,2.219
	S28.594,21.595,28.594,20.369"/>
</svg>
