<?xml version="1.0" encoding="utf-8"?>
<!-- Generator: Adobe Illustrator 16.0.4, SVG Export Plug-In . SVG Version: 6.00 Build 0)  -->
<!DOCTYPE svg PUBLIC "-//W3C//DTD SVG 1.1//EN" "http://www.w3.org/Graphics/SVG/1.1/DTD/svg11.dtd">
<svg version="1.1" id="Layer_1" xmlns="http://www.w3.org/2000/svg" xmlns:xlink="http://www.w3.org/1999/xlink" x="0px" y="0px"
	 width="34px" height="34px" viewBox="0 0 34 34" enable-background="new 0 0 34 34" xml:space="preserve">
<title>Close</title>
<desc>Created with Sketch.</desc>
<path fill="#EEEEEE" d="M17,0C7.63,0,0,7.63,0,17s7.63,17,17,17s17-7.63,17-17S26.37,0,17,0z M17,32C8.73,32,2,25.27,2,17
	C2,8.73,8.73,2,17,2c8.27,0,15,6.73,15,15C32,25.27,25.27,32,17,32z"/>
<path fill="#EF5222" d="M26.31,9.3l-7.8,7.8l7.471,7.47c0.39,0.39,0.39,1.02,0,1.41c-0.2,0.189-0.45,0.289-0.711,0.289
	c-0.25,0-0.51-0.1-0.71-0.289L17.1,18.52L9.63,25.98c-0.2,0.189-0.45,0.289-0.71,0.289c-0.25,0-0.51-0.1-0.7-0.289
	c-0.39-0.391-0.39-1.021,0-1.421l7.46-7.459l-7.8-7.8c-0.39-0.39-0.39-1.03,0-1.42c0.39-0.39,1.03-0.39,1.42,0l7.8,7.8l7.8-7.8
	c0.39-0.39,1.02-0.39,1.409,0C26.7,8.27,26.7,8.91,26.31,9.3z"/>
</svg>
