<?xml version="1.0" encoding="utf-8"?>
<!-- Generator: Adobe Illustrator 16.0.4, SVG Export Plug-In . SVG Version: 6.00 Build 0)  -->
<!DOCTYPE svg PUBLIC "-//W3C//DTD SVG 1.1//EN" "http://www.w3.org/Graphics/SVG/1.1/DTD/svg11.dtd">
<svg version="1.1" id="Layer_1" xmlns="http://www.w3.org/2000/svg" xmlns:xlink="http://www.w3.org/1999/xlink" x="0px" y="0px"
	 width="148.333px" height="52.5px" viewBox="0 0 148.333 52.5" enable-background="new 0 0 148.333 52.5" xml:space="preserve">
<g>
	<g>
		<path d="M22.31,19.196c-0.15,0.3-0.27,0.7-0.27,1.24c0,0,0,2.23,0,2.65c0,0.35,0.14,0.33,0.51,0.64
			C22.54,22.126,22.46,20.617,22.31,19.196z M22.32,33.926c-0.36,0.97-0.44,2.48,0.24,3.67v-4.24L22.32,33.926z"/>
		<path d="M22.59,50.497v1.28h-8.77v-13.33H0.25v-20.61h13.41c0,0-0.45-3.99-1.94-7.38c-1.18-2.57-2.96-4.87-2.96-4.87l7.52-3.27
			c0.21,0.29,0.46,0.65,0.74,1.07l-0.6,0.26l-0.59,0.25l-0.51,0.23l-4.6,2c0.64,0.95,1.48,2.33,2.16,3.8v0.02
			c1.55,3.53,2.03,7.58,2.04,7.75l0.16,1.42H1.53v18.05H15.1v13.34h6.21c0,0,0,0,0-0.01H22.59z"/>
		<path fill="#EF5323" d="M22.59,50.497h-1.28c0,0.01,0,0.01,0,0.01H15.1v-13.34H1.53v-18.05h13.55l-0.16-1.42
			c-0.01-0.17-0.49-4.22-2.04-7.75v-0.02c-0.68-1.47-1.52-2.85-2.16-3.8l4.6-2l0.51-0.23l0.59-0.25l0.6-0.26
			c1.75,2.7,4.47,8,5.29,15.81c-0.15,0.3-0.27,0.7-0.27,1.24c0,0,0,2.23,0,2.65c0,0.35,0.14,0.33,0.51,0.64v0.14
			c0,2.74,0,6.03,0.01,9.49l-0.24,0.57c-0.36,0.97-0.44,2.48,0.24,3.67C22.57,42.146,22.58,46.727,22.59,50.497z"/>
	</g>
	<g>
		<path d="M51.8,17.836v20.61H38.23v13.33h-8.49v-1.28h1.28v0.01h5.93v-13.34h13.57v-18.05H36.97l0.16-1.42
			c0.02-0.17,0.49-4.22,2.04-7.75v-0.01l0.01-0.01c0.67-1.47,1.51-2.84,2.15-3.79l-4.68-2.01l-0.23-0.1l-0.59-0.26l-0.59-0.26
			c0.26-0.42,0.51-0.77,0.72-1.07l7.33,3.15c0,0-1.78,2.3-2.95,4.87c-1.49,3.39-1.94,7.38-1.94,7.38H51.8z"/>
		<path fill="#EF5323" d="M50.52,19.117v18.05H36.95v13.34h-5.93v-0.01h-1.28c0.02-7.87,0.04-19.28,0.04-26.63
			c0-10.25,3.37-17.11,5.46-20.36l0.59,0.26l0.59,0.26l0.23,0.1l4.68,2.01c-0.64,0.95-1.48,2.32-2.15,3.79l-0.01,0.01v0.01
			c-1.55,3.53-2.02,7.58-2.04,7.75l-0.16,1.42H50.52z"/>
	</g>
	<g>
		<path d="M29.04,50.126v1.72c0,0.17-0.13,0.31-0.29,0.31H23.6c-0.16,0-0.29-0.14-0.29-0.31v-1.72c0-0.16,0.12-0.3,0.27-0.31v-0.54
			c0-0.08,0.07-0.15,0.17-0.15h1.24c0,0,0.21,0,0.26,0.18c0.05,0.18,0.36,0.42,0.44,0.42s0.3,0.04,0.45-0.08
			c0,0,0.01-0.02,0.02-0.03c0.01-0.01,0.02-0.02,0.02-0.03c0.08-0.14,0.19-0.22,0.31-0.22c0.18,0,0.33,0.19,0.39,0.45h1.87
			C28.91,49.816,29.04,49.957,29.04,50.126z"/>
	</g>
	<path d="M23.575,32.746c0,0.086,0.079,0.157,0.177,0.157h1.237c0,0,0.215,0,0.263-0.182c0.051-0.179,0.354-0.415,0.434-0.415
		c0.083,0,0.303-0.043,0.451,0.079c0,0,0.018,0.016,0.027,0.024c0.007,0.012,0.012,0.022,0.017,0.032
		c0.077,0.137,0.187,0.225,0.309,0.225c0.229,0,0.415-0.311,0.415-0.689v-0.004c0-0.38-0.186-0.688-0.415-0.688
		c-0.122,0-0.231,0.088-0.309,0.223c-0.005,0.011-0.01,0.021-0.017,0.031c-0.01,0.012-0.027,0.027-0.027,0.027
		c-0.148,0.121-0.368,0.078-0.451,0.078c-0.08,0-0.383-0.236-0.434-0.415c-0.048-0.18-0.263-0.18-0.263-0.18h-1.237
		c-0.098,0-0.177,0.069-0.177,0.154V32.746z"/>
	<path d="M23.575,29.391v0.778c0,0.085,0.079,0.154,0.177,0.154h1.237c0,0,0.215,0,0.263-0.178c0.051-0.181,0.354-0.418,0.434-0.418
		c0.083,0,0.303-0.043,0.451,0.081c0,0,0.018,0.013,0.027,0.024c0.007,0.012,0.012,0.022,0.017,0.031
		c0.077,0.137,0.187,0.224,0.309,0.224c0.229,0,0.415-0.309,0.415-0.69v-0.001L23.575,29.391z"/>
	<path d="M23.575,37.915c0,0.084,0.079,0.153,0.177,0.153h1.237c0,0,0.215,0,0.263-0.18c0.051-0.18,0.354-0.415,0.434-0.415
		c0.083,0,0.303-0.044,0.451,0.078c0,0,0.018,0.017,0.027,0.026c0.007,0.011,0.012,0.021,0.017,0.032
		c0.077,0.136,0.187,0.221,0.309,0.221c0.229,0,0.415-0.307,0.415-0.688v-0.002c0-0.38-0.186-0.689-0.415-0.689
		c-0.122,0-0.231,0.085-0.309,0.224c-0.005,0.009-0.01,0.021-0.017,0.03c-0.01,0.012-0.027,0.026-0.027,0.026
		c-0.148,0.122-0.368,0.078-0.451,0.078c-0.08,0-0.383-0.236-0.434-0.416c-0.048-0.179-0.263-0.179-0.263-0.179h-1.237
		c-0.098,0-0.177,0.069-0.177,0.154V37.915z"/>
	<path d="M26.904,34.565v0.002c0,0.379-0.186,0.688-0.415,0.688c-0.122,0-0.231-0.088-0.309-0.223
		c-0.005-0.01-0.01-0.021-0.017-0.031c-0.01-0.012-0.027-0.027-0.027-0.027c-0.148-0.121-0.368-0.079-0.451-0.079
		c-0.08,0-0.383,0.237-0.434,0.416c-0.048,0.182-0.263,0.182-0.263,0.182h-1.237c-0.098,0-0.177-0.071-0.177-0.157v-0.777V33.78
		c0-0.084,0.079-0.154,0.177-0.154h1.237c0,0,0.215,0,0.263,0.18c0.051,0.179,0.354,0.416,0.434,0.416
		c0.083,0,0.303,0.044,0.451-0.079c0,0,0.018-0.017,0.027-0.026c0.007-0.01,0.012-0.022,0.017-0.03
		c0.077-0.138,0.187-0.224,0.309-0.224c0.229,0,0.415,0.309,0.415,0.689v0.002V34.565z"/>
	<path d="M26.904,39.719L26.904,39.719c0-0.383-0.186-0.689-0.415-0.689c-0.122,0-0.231,0.086-0.309,0.222
		c-0.005,0.01-0.01,0.021-0.017,0.031c-0.01,0.011-0.027,0.026-0.027,0.026c-0.148,0.123-0.368,0.079-0.451,0.079
		c-0.08,0-0.383-0.236-0.434-0.416c-0.048-0.18-0.263-0.18-0.263-0.18h-1.237c-0.098,0-0.177,0.069-0.177,0.155v0.778L26.904,39.719
		z"/>
	<path d="M23.575,43.081c0,0.085,0.079,0.154,0.177,0.154h1.237c0,0,0.215,0,0.263-0.18c0.051-0.18,0.354-0.416,0.434-0.416
		c0.083,0,0.303-0.043,0.451,0.079c0,0,0.018,0.016,0.027,0.026c0.007,0.011,0.012,0.021,0.017,0.033
		C26.258,42.913,26.367,43,26.489,43c0.229,0,0.415-0.31,0.415-0.69v-0.001c0-0.38-0.186-0.688-0.415-0.688
		c-0.122,0-0.231,0.084-0.309,0.221c-0.005,0.009-0.01,0.021-0.017,0.031c-0.01,0.01-0.027,0.025-0.027,0.025
		c-0.148,0.124-0.368,0.081-0.451,0.081c-0.08,0-0.383-0.237-0.434-0.418c-0.048-0.179-0.263-0.179-0.263-0.179h-1.237
		c-0.098,0-0.177,0.069-0.177,0.154V43.081z"/>
	<path d="M23.575,39.726v0.777c0,0.085,0.079,0.155,0.177,0.155h1.237c0,0,0.215,0,0.263-0.181c0.051-0.179,0.354-0.416,0.434-0.416
		c0.083,0,0.303-0.042,0.451,0.078c0,0,0.018,0.017,0.027,0.027c0.007,0.012,0.012,0.022,0.017,0.031
		c0.077,0.138,0.187,0.222,0.309,0.222c0.229,0,0.415-0.308,0.415-0.688v-0.001L23.575,39.726z"/>
	<path d="M23.575,48.246c0,0.087,0.079,0.156,0.177,0.156h1.237c0,0,0.215,0,0.263-0.178c0.051-0.181,0.354-0.417,0.434-0.417
		c0.083,0,0.303-0.043,0.451,0.079c0,0,0.018,0.015,0.027,0.026c0.007,0.011,0.012,0.021,0.017,0.029
		c0.077,0.138,0.187,0.225,0.309,0.225c0.229,0,0.415-0.311,0.415-0.689v-0.003c0-0.38-0.186-0.689-0.415-0.689
		c-0.122,0-0.231,0.087-0.309,0.223c-0.005,0.01-0.01,0.021-0.017,0.032c-0.01,0.011-0.027,0.027-0.027,0.027
		c-0.148,0.122-0.368,0.078-0.451,0.078c-0.08,0-0.383-0.237-0.434-0.415c-0.048-0.18-0.263-0.18-0.263-0.18h-1.237
		c-0.098,0-0.177,0.068-0.177,0.153V48.246z"/>
	<path d="M26.904,44.897v0.002c0,0.38-0.186,0.689-0.415,0.689c-0.122,0-0.231-0.086-0.309-0.222
		c-0.005-0.01-0.01-0.022-0.017-0.032c-0.01-0.011-0.027-0.025-0.027-0.025c-0.148-0.123-0.368-0.079-0.451-0.079
		c-0.08,0-0.383,0.236-0.434,0.416c-0.048,0.178-0.263,0.178-0.263,0.178h-1.237c-0.098,0-0.177-0.068-0.177-0.153v-0.778v-0.777
		c0-0.088,0.079-0.154,0.177-0.154h1.237c0,0,0.215,0,0.263,0.179c0.051,0.179,0.354,0.415,0.434,0.415
		c0.083,0,0.303,0.044,0.451-0.078c0,0,0.018-0.016,0.027-0.025c0.007-0.012,0.012-0.022,0.017-0.032
		c0.077-0.137,0.187-0.222,0.309-0.222c0.229,0,0.415,0.309,0.415,0.688v0.003V44.897z"/>
	<g>
		<path d="M28.792,34.033c0,0.086-0.08,0.155-0.179,0.155h-1.238c0,0-0.213,0-0.262-0.181c-0.049-0.179-0.353-0.416-0.434-0.416
			c-0.082,0-0.304-0.042-0.45,0.079c0,0-0.021,0.016-0.026,0.026c-0.008,0.012-0.014,0.021-0.02,0.032
			c-0.075,0.136-0.186,0.222-0.307,0.222c-0.23,0-0.417-0.308-0.417-0.688v-0.001c0-0.381,0.187-0.691,0.417-0.691
			c0.121,0,0.231,0.086,0.307,0.224c0.006,0.01,0.012,0.021,0.02,0.032c0.006,0.011,0.026,0.025,0.026,0.025
			c0.146,0.121,0.368,0.08,0.45,0.08c0.081,0,0.385-0.238,0.434-0.417c0.049-0.18,0.262-0.18,0.262-0.18h1.238
			c0.099,0,0.179,0.069,0.179,0.155V34.033z"/>
		<path d="M28.792,39.2c0,0.085-0.08,0.155-0.179,0.155h-1.238c0,0-0.213,0-0.262-0.179c-0.049-0.181-0.353-0.419-0.434-0.419
			c-0.082,0-0.304-0.04-0.45,0.08c0,0-0.021,0.016-0.026,0.026c-0.008,0.011-0.014,0.022-0.02,0.032
			c-0.075,0.136-0.186,0.223-0.307,0.223c-0.23,0-0.417-0.309-0.417-0.69v-0.002c0-0.381,0.187-0.688,0.417-0.688
			c0.121,0,0.231,0.086,0.307,0.223c0.006,0.01,0.012,0.02,0.02,0.031c0.006,0.012,0.026,0.027,0.026,0.027
			c0.146,0.121,0.368,0.079,0.45,0.079c0.081,0,0.385-0.237,0.434-0.418c0.049-0.179,0.262-0.179,0.262-0.179h1.238
			c0.099,0,0.179,0.069,0.179,0.156V39.2z"/>
		<path d="M25.46,35.849v0.002c0,0.381,0.187,0.689,0.417,0.689c0.121,0,0.231-0.084,0.307-0.223c0.006-0.01,0.012-0.02,0.02-0.032
			c0.006-0.011,0.026-0.024,0.026-0.024c0.146-0.123,0.368-0.08,0.45-0.08c0.081,0,0.385,0.237,0.434,0.418
			c0.049,0.178,0.262,0.178,0.262,0.178h1.238c0.099,0,0.179-0.068,0.179-0.155v-0.778v-0.776c0-0.086-0.08-0.155-0.179-0.155
			h-1.238c0,0-0.213,0-0.262,0.18c-0.049,0.181-0.353,0.416-0.434,0.416c-0.082,0-0.304,0.044-0.45-0.08
			c0,0-0.021-0.014-0.026-0.025c-0.008-0.011-0.014-0.021-0.02-0.031c-0.075-0.138-0.186-0.223-0.307-0.223
			c-0.23,0-0.417,0.307-0.417,0.689v0.002V35.849z"/>
		<path d="M28.792,44.367c0,0.085-0.08,0.155-0.179,0.155h-1.238c0,0-0.213,0-0.262-0.179c-0.049-0.18-0.353-0.416-0.434-0.416
			c-0.082,0-0.304-0.045-0.45,0.079c0,0-0.021,0.015-0.026,0.024c-0.008,0.011-0.014,0.021-0.02,0.032
			c-0.075,0.137-0.186,0.221-0.307,0.221c-0.23,0-0.417-0.308-0.417-0.688v-0.001c0-0.381,0.187-0.689,0.417-0.689
			c0.121,0,0.231,0.084,0.307,0.221c0.006,0.012,0.012,0.021,0.02,0.032c0.006,0.011,0.026,0.025,0.026,0.025
			c0.146,0.123,0.368,0.081,0.45,0.081c0.081,0,0.385-0.238,0.434-0.418s0.262-0.18,0.262-0.18h1.238
			c0.099,0,0.179,0.071,0.179,0.155V44.367z"/>
		<path d="M25.46,41.017v0.002c0,0.381,0.187,0.69,0.417,0.69c0.121,0,0.231-0.088,0.307-0.224c0.006-0.009,0.012-0.022,0.02-0.033
			c0.006-0.01,0.026-0.024,0.026-0.024c0.146-0.121,0.368-0.08,0.45-0.08c0.081,0,0.385,0.237,0.434,0.417
			c0.049,0.178,0.262,0.178,0.262,0.178h1.238c0.099,0,0.179-0.069,0.179-0.154v-0.777v-0.777c0-0.087-0.08-0.155-0.179-0.155
			h-1.238c0,0-0.213,0-0.262,0.179s-0.353,0.418-0.434,0.418c-0.082,0-0.304,0.043-0.45-0.08c0,0-0.021-0.016-0.026-0.026
			c-0.008-0.011-0.014-0.022-0.02-0.031c-0.075-0.138-0.186-0.223-0.307-0.223c-0.23,0-0.417,0.31-0.417,0.69v0.001V41.017z"/>
		<path d="M28.792,49.535c0,0.085-0.08,0.153-0.179,0.153h-1.238c0,0-0.213,0-0.262-0.181c-0.049-0.178-0.353-0.415-0.434-0.415
			c-0.082,0-0.304-0.043-0.45,0.078c0,0-0.021,0.017-0.026,0.028c-0.008,0.01-0.014,0.021-0.02,0.03
			c-0.075,0.138-0.186,0.223-0.307,0.223c-0.23,0-0.417-0.309-0.417-0.689v-0.001c0-0.381,0.187-0.688,0.417-0.688
			c0.121,0,0.231,0.085,0.307,0.221c0.006,0.009,0.012,0.021,0.02,0.032c0.006,0.011,0.026,0.025,0.026,0.025
			c0.146,0.121,0.368,0.078,0.45,0.078c0.081,0,0.385-0.236,0.434-0.415c0.049-0.181,0.262-0.181,0.262-0.181h1.238
			c0.099,0,0.179,0.071,0.179,0.156V49.535z"/>
		<path d="M25.46,46.183v0.003c0,0.379,0.187,0.688,0.417,0.688c0.121,0,0.231-0.084,0.307-0.221c0.006-0.01,0.012-0.021,0.02-0.031
			c0.006-0.012,0.026-0.026,0.026-0.026c0.146-0.123,0.368-0.078,0.45-0.078c0.081,0,0.385,0.235,0.434,0.415
			c0.049,0.179,0.262,0.179,0.262,0.179h1.238c0.099,0,0.179-0.069,0.179-0.154v-0.778v-0.777c0-0.085-0.08-0.156-0.179-0.156
			h-1.238c0,0-0.213,0-0.262,0.181c-0.049,0.179-0.353,0.415-0.434,0.415c-0.082,0-0.304,0.044-0.45-0.078
			c0,0-0.021-0.017-0.026-0.026c-0.008-0.01-0.014-0.021-0.02-0.031c-0.075-0.137-0.186-0.223-0.307-0.223
			c-0.23,0-0.417,0.309-0.417,0.689v0.002V46.183z"/>
	</g>
	<g>
		<path d="M34.294,3.559c-0.04,0.068-0.14,0.085-0.222,0.037l-1.051-0.613c0,0-0.181-0.106-0.133-0.282
			c0.048-0.175-0.086-0.531-0.152-0.573c-0.069-0.039-0.232-0.19-0.42-0.159c0,0-0.023,0.004-0.036,0.008
			c-0.014,0.009-0.022,0.014-0.032,0.02c-0.134,0.079-0.271,0.098-0.374,0.04c-0.195-0.116-0.193-0.483,0.016-0.818l0.001-0.001
			c0.207-0.335,0.534-0.503,0.725-0.378c0.099,0.066,0.143,0.196,0.131,0.353c0,0.012-0.002,0.023-0.002,0.039
			c0.001,0.013,0.007,0.033,0.007,0.033c0.058,0.182,0.263,0.263,0.332,0.306c0.067,0.042,0.443,0.004,0.58-0.116
			c0.136-0.123,0.313-0.007,0.313-0.007l1.014,0.67c0.08,0.053,0.108,0.15,0.064,0.218c0,0-0.193,0.303-0.385,0.606
			C34.48,3.248,34.294,3.559,34.294,3.559z"/>
		<path d="M32.03,7.873c-0.032,0.072-0.128,0.103-0.217,0.065l-1.117-0.479c0,0-0.193-0.084-0.167-0.266
			c0.029-0.179-0.148-0.516-0.222-0.549c-0.071-0.032-0.253-0.16-0.435-0.108c0,0-0.024,0.007-0.035,0.015
			c-0.012,0.005-0.021,0.015-0.031,0.021c-0.123,0.096-0.256,0.132-0.365,0.083c-0.207-0.089-0.249-0.453-0.085-0.809V5.842
			c0.163-0.355,0.468-0.558,0.672-0.462c0.106,0.051,0.165,0.178,0.176,0.333c0,0.011,0.001,0.021,0.002,0.037
			c0,0.014,0.011,0.036,0.011,0.036c0.077,0.173,0.292,0.224,0.366,0.26c0.073,0.034,0.44-0.053,0.563-0.19
			c0.119-0.135,0.306-0.043,0.306-0.043l1.092,0.533c0.086,0.044,0.127,0.136,0.092,0.208c0,0-0.153,0.328-0.309,0.656
			C32.177,7.542,32.03,7.873,32.03,7.873z"/>
		<path d="M30.546,3.479L30.546,3.479c-0.189,0.344-0.172,0.712,0.028,0.814c0.106,0.057,0.24,0.027,0.371-0.059
			c0.009-0.005,0.018-0.011,0.031-0.019c0.012-0.007,0.035-0.013,0.035-0.013c0.187-0.039,0.355,0.103,0.426,0.14
			c0.071,0.039,0.224,0.385,0.186,0.563c-0.039,0.178,0.146,0.272,0.146,0.272l1.082,0.557c0.085,0.045,0.184,0.022,0.219-0.048
			l0.346-0.646l0.356-0.635c0.041-0.071,0.006-0.164-0.077-0.216l-1.051-0.61c0,0-0.18-0.104-0.311,0.024
			c-0.13,0.13-0.503,0.186-0.572,0.149c-0.069-0.039-0.28-0.107-0.347-0.286c0,0-0.008-0.022-0.012-0.036
			c0.001-0.015,0.001-0.025,0-0.037c0.004-0.154-0.047-0.285-0.151-0.345c-0.195-0.112-0.512,0.072-0.699,0.415v0.001L30.546,3.479z
			"/>
		<path d="M30.407,12.443c-0.021,0.077-0.115,0.119-0.206,0.094l-1.174-0.323c0,0-0.199-0.054-0.201-0.237
			c0.002-0.182-0.218-0.491-0.295-0.513c-0.076-0.021-0.272-0.125-0.445-0.045c0,0-0.022,0.008-0.032,0.018
			c-0.013,0.011-0.021,0.017-0.026,0.024c-0.109,0.111-0.238,0.164-0.352,0.133c-0.217-0.061-0.311-0.415-0.197-0.789v-0.003
			c0.113-0.373,0.386-0.619,0.601-0.549c0.114,0.036,0.19,0.152,0.22,0.305c0.002,0.012,0.004,0.021,0.008,0.037
			c0.004,0.013,0.018,0.031,0.018,0.031c0.101,0.162,0.319,0.183,0.396,0.208c0.078,0.023,0.43-0.111,0.529-0.263
			c0.102-0.155,0.301-0.09,0.301-0.09l1.154,0.38c0.092,0.031,0.145,0.116,0.121,0.193c0,0-0.108,0.348-0.217,0.689
			C30.508,12.095,30.407,12.443,30.407,12.443z"/>
		<path d="M28.331,8.296h-0.003c-0.137,0.368-0.069,0.729,0.142,0.803c0.114,0.041,0.244-0.005,0.361-0.108
			c0.008-0.008,0.017-0.015,0.028-0.023C28.87,8.96,28.891,8.95,28.891,8.95c0.18-0.065,0.368,0.052,0.443,0.078
			c0.076,0.029,0.274,0.352,0.259,0.533c-0.014,0.182,0.186,0.251,0.186,0.251l1.148,0.401c0.088,0.033,0.185-0.002,0.21-0.078
			l0.253-0.688l0.265-0.68c0.031-0.076-0.017-0.164-0.104-0.2l-1.127-0.46c0,0-0.192-0.079-0.304,0.067
			c-0.113,0.146-0.471,0.256-0.546,0.227c-0.077-0.029-0.293-0.068-0.386-0.234c0,0-0.009-0.021-0.013-0.033
			c-0.003-0.016-0.004-0.026-0.005-0.036c-0.021-0.157-0.087-0.276-0.197-0.321c-0.211-0.085-0.499,0.14-0.639,0.508v0.002
			L28.331,8.296z"/>
		<path d="M29.435,17.192c-0.011,0.079-0.097,0.134-0.193,0.121l-1.204-0.154c0,0-0.207-0.028-0.231-0.208
			c-0.025-0.182-0.287-0.454-0.365-0.468c-0.081-0.01-0.287-0.085-0.448,0.016c0,0-0.022,0.014-0.03,0.022
			c-0.01,0.014-0.016,0.02-0.022,0.028c-0.093,0.126-0.212,0.198-0.329,0.183c-0.225-0.029-0.363-0.368-0.305-0.756v-0.001
			c0.061-0.387,0.295-0.669,0.52-0.629c0.115,0.02,0.206,0.125,0.258,0.271c0.005,0.011,0.008,0.021,0.012,0.034
			c0.009,0.013,0.021,0.032,0.021,0.032c0.124,0.144,0.344,0.135,0.426,0.149c0.077,0.012,0.409-0.171,0.487-0.334
			c0.079-0.165,0.283-0.129,0.283-0.129l1.195,0.215c0.097,0.016,0.161,0.096,0.146,0.178c0,0-0.059,0.354-0.119,0.711
			C29.485,16.833,29.435,17.192,29.435,17.192z"/>
		<path d="M26.801,13.374v0.004c-0.085,0.38,0.029,0.728,0.251,0.774c0.118,0.024,0.238-0.04,0.34-0.158
			c0.009-0.009,0.014-0.018,0.025-0.028c0.01-0.011,0.031-0.021,0.031-0.021c0.168-0.09,0.37-0.002,0.45,0.016
			c0.076,0.019,0.317,0.309,0.33,0.492c0.011,0.182,0.214,0.224,0.214,0.224l1.194,0.237c0.093,0.021,0.184-0.028,0.199-0.107
			l0.154-0.714l0.169-0.711c0.02-0.076-0.04-0.161-0.134-0.185l-1.179-0.298c0,0-0.202-0.051-0.292,0.108
			c-0.088,0.158-0.434,0.314-0.508,0.301c-0.081-0.02-0.3-0.028-0.413-0.182c0,0-0.015-0.018-0.021-0.031
			c-0.004-0.016-0.005-0.025-0.009-0.035c-0.04-0.15-0.123-0.261-0.239-0.288c-0.221-0.058-0.476,0.209-0.562,0.59v0.001
			L26.801,13.374z"/>
		<path d="M25.993,18.606L25.993,18.606c0.034-0.394,0.247-0.688,0.474-0.664c0.119,0.012,0.215,0.107,0.277,0.253
			c0.003,0.01,0.009,0.018,0.016,0.033c0.006,0.012,0.024,0.028,0.024,0.028c0.13,0.136,0.353,0.112,0.433,0.12
			c0.078,0.006,0.395-0.198,0.461-0.367c0.067-0.172,0.277-0.148,0.277-0.148l1.207,0.132c0.095,0.01,0.165,0.084,0.156,0.162
			l-0.068,0.729L25.993,18.606z"/>
	</g>
	<path d="M20.758,9.007c0.027,0.075,0.121,0.11,0.212,0.077l1.143-0.414c0,0,0.198-0.072,0.183-0.255
		c-0.017-0.181,0.179-0.507,0.253-0.535c0.073-0.027,0.262-0.146,0.44-0.083c0,0,0.023,0.008,0.034,0.016
		c0.012,0.008,0.021,0.017,0.028,0.022C23.17,7.939,23.3,7.983,23.412,7.94c0.212-0.077,0.274-0.438,0.131-0.803V7.135
		C23.4,6.771,23.107,6.551,22.9,6.636c-0.111,0.045-0.177,0.168-0.196,0.322c0,0.01-0.001,0.02-0.003,0.037
		c-0.002,0.012-0.015,0.033-0.015,0.033c-0.087,0.17-0.305,0.208-0.379,0.239c-0.077,0.028-0.438-0.077-0.551-0.221
		s-0.303-0.062-0.303-0.062l-1.122,0.471c-0.088,0.038-0.135,0.127-0.104,0.201c0,0,0.136,0.337,0.271,0.673
		C20.629,8.67,20.758,9.007,20.758,9.007z"/>
	<path d="M22.491,4.707L22.491,4.707c0.17,0.354,0.132,0.721-0.074,0.812c-0.11,0.05-0.242,0.013-0.368-0.08
		c-0.009-0.005-0.016-0.012-0.028-0.021c-0.012-0.007-0.035-0.014-0.035-0.014c-0.184-0.051-0.36,0.08-0.435,0.113
		c-0.072,0.035-0.245,0.371-0.217,0.552c0.03,0.181-0.162,0.266-0.162,0.266l-1.11,0.492c-0.089,0.04-0.186,0.013-0.217-0.062
		l-0.31-0.664l-0.319-0.654c-0.036-0.072,0.005-0.163,0.091-0.211l1.084-0.547c0,0,0.186-0.096,0.309,0.041
		c0.122,0.137,0.492,0.215,0.563,0.182c0.071-0.034,0.286-0.091,0.362-0.266c0,0,0.01-0.021,0.012-0.034
		c0-0.017,0.002-0.026,0.002-0.036c0.008-0.156,0.064-0.283,0.172-0.337c0.2-0.101,0.507,0.102,0.675,0.454v0.002L22.491,4.707z"/>
	<path d="M22.115,13.664c0.017,0.078,0.107,0.127,0.199,0.105l1.191-0.254c0,0,0.202-0.043,0.214-0.226
		c0.008-0.181,0.245-0.478,0.325-0.495c0.077-0.018,0.278-0.109,0.447-0.021c0,0,0.021,0.01,0.031,0.019
		c0.011,0.014,0.018,0.02,0.025,0.027c0.102,0.117,0.227,0.179,0.344,0.153c0.219-0.047,0.332-0.396,0.24-0.776v-0.002
		c-0.092-0.381-0.349-0.642-0.568-0.584c-0.116,0.029-0.197,0.141-0.236,0.292c-0.003,0.012-0.005,0.02-0.011,0.036
		C24.313,11.952,24.3,11.97,24.3,11.97c-0.109,0.154-0.331,0.164-0.408,0.184c-0.08,0.02-0.424-0.136-0.515-0.293
		c-0.093-0.158-0.295-0.105-0.295-0.105l-1.174,0.312c-0.093,0.025-0.15,0.108-0.131,0.187c0,0,0.089,0.352,0.177,0.702
		C22.035,13.311,22.115,13.664,22.115,13.664z"/>
	<path d="M24.426,9.644l0.002,0.001c0.117,0.374,0.029,0.731-0.188,0.793c-0.113,0.033-0.242-0.02-0.354-0.13
		c-0.009-0.008-0.015-0.015-0.026-0.024c-0.01-0.009-0.031-0.02-0.031-0.02c-0.175-0.076-0.369,0.029-0.447,0.054
		c-0.076,0.024-0.293,0.334-0.288,0.516c0.002,0.184-0.199,0.24-0.199,0.24l-1.17,0.336c-0.091,0.027-0.184-0.014-0.205-0.092
		l-0.213-0.699L21.08,9.924c-0.026-0.078,0.027-0.163,0.118-0.194l1.15-0.394c0,0,0.196-0.068,0.3,0.083
		c0.103,0.151,0.456,0.283,0.533,0.259c0.077-0.025,0.296-0.052,0.396-0.212c0,0,0.012-0.021,0.017-0.032
		c0.002-0.017,0.006-0.026,0.008-0.037c0.029-0.154,0.101-0.271,0.215-0.308c0.214-0.073,0.489,0.168,0.606,0.543v0.001
		L24.426,9.644z"/>
	<path d="M22.812,18.461c0.007,0.079,0.09,0.138,0.186,0.132l1.214-0.085c0,0,0.207-0.017,0.241-0.194
		c0.036-0.179,0.313-0.438,0.392-0.445c0.081-0.006,0.292-0.069,0.447,0.041c0,0,0.021,0.015,0.029,0.023
		c0.009,0.016,0.014,0.021,0.02,0.031c0.085,0.13,0.2,0.209,0.318,0.199c0.226-0.016,0.385-0.346,0.347-0.736v-0.002
		c-0.037-0.39-0.256-0.684-0.481-0.657c-0.117,0.014-0.214,0.113-0.273,0.258c-0.005,0.01-0.009,0.019-0.014,0.033
		c-0.008,0.012-0.023,0.03-0.023,0.03c-0.132,0.137-0.351,0.115-0.433,0.124c-0.079,0.009-0.398-0.193-0.468-0.361
		c-0.068-0.17-0.274-0.145-0.274-0.145l-1.206,0.146c-0.098,0.01-0.166,0.087-0.157,0.167c0,0,0.04,0.359,0.077,0.721
		C22.784,18.1,22.812,18.461,22.812,18.461z"/>
	<path d="M25.662,14.8v0.004c0.063,0.385-0.071,0.727-0.295,0.759c-0.119,0.018-0.236-0.055-0.332-0.178
		c-0.007-0.009-0.013-0.019-0.022-0.029c-0.009-0.01-0.03-0.021-0.03-0.021c-0.163-0.1-0.369-0.023-0.449-0.011
		c-0.077,0.014-0.335,0.29-0.359,0.473c-0.02,0.181-0.227,0.209-0.227,0.209l-1.205,0.17c-0.096,0.014-0.182-0.039-0.192-0.12
		l-0.114-0.72l-0.127-0.72c-0.014-0.078,0.05-0.158,0.144-0.177l1.194-0.229c0,0,0.205-0.039,0.284,0.125
		c0.08,0.162,0.416,0.339,0.492,0.328c0.079-0.015,0.301-0.009,0.422-0.155c0,0,0.016-0.02,0.022-0.031
		c0.004-0.016,0.008-0.025,0.01-0.035c0.051-0.147,0.139-0.253,0.256-0.274c0.224-0.044,0.461,0.235,0.527,0.623v0.001L25.662,14.8z
		"/>
	<path d="M26.168,20.07L26.168,20.07c-0.011-0.394-0.208-0.7-0.436-0.689c-0.119,0.004-0.221,0.096-0.291,0.237
		c-0.004,0.008-0.01,0.017-0.017,0.032c-0.007,0.01-0.026,0.027-0.026,0.027c-0.139,0.127-0.358,0.091-0.438,0.094
		s-0.384-0.221-0.44-0.393c-0.057-0.176-0.268-0.165-0.268-0.165l-1.213,0.063c-0.094,0.003-0.17,0.074-0.167,0.152l0.028,0.731
		L26.168,20.07z"/>
	<g>
		<g>
			<g>
				<path fill="#FFFFFF" d="M30.347,20.52c0,0,0,2.287,0,2.713c0,0.343-0.123,0.343-0.453,0.602c-0.076,0.059-0.16,0.13-0.259,0.222
					c-0.183,0.173-0.421,0.423-0.669,0.73c-0.318,0.39-0.654,0.874-0.928,1.44c-0.287,0.6-0.5,1.29-0.537,2.041h-2.695
					c-0.072-1.465-0.811-2.685-1.465-3.481c-0.252-0.308-0.488-0.558-0.674-0.73c-0.068-0.065-0.131-0.121-0.189-0.166
					c-0.382-0.314-0.522-0.291-0.522-0.657c0-0.426,0-2.713,0-2.713c0-0.553,0.118-0.969,0.278-1.276
					c0.17-0.336,0.39-0.541,0.555-0.663c0-0.004,0.004,0,0.004,0c0.145-0.109,0.248-0.147,0.248-0.147
					c0.609-0.292,1.246-0.559,2.583-0.782h1.058c0.469,0.078,0.854,0.162,1.182,0.251c0.062,0.017,0.121,0.033,0.176,0.049
					c0.508,0.15,0.873,0.312,1.228,0.482c0,0,0.05,0.019,0.124,0.062c0.18,0.104,0.514,0.355,0.736,0.863
					C30.257,19.653,30.347,20.032,30.347,20.52z"/>
				<path d="M27.925,28.713h-3.543l-0.021-0.423c-0.067-1.371-0.779-2.508-1.364-3.221c-0.217-0.265-0.442-0.509-0.633-0.688
					c-0.059-0.057-0.109-0.102-0.157-0.138c-0.099-0.082-0.172-0.133-0.232-0.177c-0.272-0.194-0.464-0.367-0.464-0.834V20.52
					c0-0.564,0.111-1.063,0.329-1.482c0.129-0.255,0.299-0.479,0.504-0.667v-0.235l0.313-0.001c0.117-0.074,0.203-0.108,0.232-0.119
					c0.581-0.281,1.255-0.568,2.662-0.803l1.131-0.006c0.56,0.087,0.959,0.174,1.299,0.268l0.181,0.05
					c0.511,0.151,0.886,0.312,1.29,0.505c0.005,0.001,0.072,0.03,0.162,0.082c0.226,0.131,0.647,0.444,0.921,1.069
					c0.171,0.384,0.258,0.835,0.258,1.34v2.713c0,0.466-0.191,0.639-0.462,0.833l-0.161,0.12c-0.07,0.054-0.144,0.117-0.23,0.197
					c-0.169,0.16-0.393,0.395-0.625,0.684c-0.356,0.437-0.65,0.892-0.874,1.354c-0.296,0.62-0.462,1.249-0.493,1.87L27.925,28.713z
					 M25.212,27.823h1.882c0.079-0.599,0.26-1.199,0.542-1.788c0.254-0.527,0.585-1.042,0.984-1.53
					c0.288-0.356,0.543-0.617,0.708-0.772c0.114-0.106,0.208-0.186,0.293-0.251c0.07-0.055,0.134-0.101,0.189-0.141
					c0.046-0.033,0.084-0.056,0.111-0.083l-0.021-2.737c0-0.379-0.061-0.708-0.182-0.98c-0.173-0.395-0.42-0.582-0.553-0.659
					l-0.093-0.046c-0.369-0.177-0.708-0.322-1.162-0.457l-0.164-0.045c-0.319-0.087-0.689-0.167-1.141-0.243l-0.984,0.006
					c-1.22,0.21-1.808,0.459-2.391,0.738c-0.032,0.014-0.089,0.038-0.172,0.101l-0.086,0.065c-0.14,0.12-0.255,0.269-0.343,0.443
					C22.477,19.74,22.4,20.1,22.4,20.52v2.713c0.006,0.053,0.044,0.076,0.091,0.109c0.074,0.053,0.163,0.117,0.27,0.204
					c0.058,0.044,0.132,0.11,0.214,0.188c0.215,0.201,0.469,0.476,0.71,0.77C24.295,25.248,25.027,26.403,25.212,27.823z"/>
			</g>
		</g>
		<g>
			<path fill="#FFFFFF" d="M25.858,40.343l-0.235-0.019c-0.347-0.036-0.658-0.079-0.658-0.079c-0.557-0.121-1.038-0.305-1.459-0.552
				c-0.577-0.344-1.036-0.807-1.366-1.377c-0.807-1.394-0.657-3.083-0.283-4.104c0.098-0.219,0.177-0.408,0.251-0.592
				c0.872-2.207,0.827-4.001,0.827-4.019l0-6.776c0-0.625,0.334-0.984,0.916-0.984c0,0,4.512,0.001,4.513,0.001
				c0.676,0,1.008,0.359,1.008,0.983v6.763c-0.001,0.032-0.048,1.906,0.884,4.182c0.055,0.137,0.117,0.278,0.179,0.418
				c0.368,1,0.53,2.629-0.198,4.003c-0.272,0.515-0.649,0.949-1.12,1.292c-0.276,0.201-0.589,0.371-0.931,0.505
				c-0.245,0.104-0.54,0.193-0.867,0.261c-0.128,0.025-0.258,0.05-0.393,0.068c-0.094,0.013-0.593,0.029-0.911,0.029L25.858,40.343z
				 M26.149,33.844c-0.21,0-0.409,0.02-0.593,0.058c-0.397,0.084-0.761,0.245-1.053,0.464c-0.268,0.195-0.476,0.427-0.621,0.694
				c-0.145,0.266-0.221,0.561-0.221,0.853c0,0.29,0.077,0.585,0.221,0.853c0.297,0.539,0.858,0.946,1.537,1.116
				c0.108,0.03,0.208,0.048,0.31,0.06c0.144,0.023,0.268,0.034,0.398,0.034c-0.002,0,0.528-0.012,0.891-0.133
				c0.153-0.051,0.305-0.108,0.446-0.183c0.119-0.06,0.225-0.125,0.326-0.203c0.178-0.126,0.326-0.268,0.45-0.429
				c0.112-0.146,0.198-0.293,0.261-0.446c0.09-0.216,0.135-0.44,0.135-0.667c0-0.375-0.122-0.741-0.352-1.059
				c-0.138-0.19-0.3-0.352-0.482-0.481C27.345,34.03,26.761,33.844,26.149,33.844z"/>
			<path d="M28.459,22.245c0.207,0,0.507,0.041,0.507,0.579v1.963c0,2.102,0,4.8,0,4.8s-0.066,1.941,0.914,4.336
				c0.056,0.139,0.119,0.283,0.183,0.428c0.355,0.967,0.452,2.447-0.185,3.65c-0.23,0.436-0.557,0.831-1,1.154
				c-0.244,0.178-0.521,0.33-0.84,0.455c-0.24,0.102-0.51,0.181-0.801,0.241c-0.115,0.022-0.237,0.046-0.363,0.062
				c-0.014,0.004-0.035,0.007-0.054,0.01c0,0-0.491,0.016-0.804,0.016c-0.053,0-0.099,0-0.139-0.002
				c-0.074-0.004-0.172-0.014-0.279-0.023c-0.273-0.029-0.578-0.071-0.578-0.071c-0.509-0.111-0.943-0.285-1.31-0.5
				c-0.551-0.328-0.944-0.754-1.22-1.23c-0.705-1.219-0.617-2.766-0.253-3.762c0.089-0.197,0.171-0.391,0.247-0.58
				c0.918-2.324,0.855-4.184,0.855-4.184s0-2.701,0-4.8v-1.963c0-0.538,0.301-0.579,0.51-0.579c0.037,0,0.071,0.001,0.1,0.001
				c0.189,0,0.723,0,0.723,0h2.957c0,0,0.208,0,0.408,0h0.322C28.389,22.247,28.422,22.245,28.459,22.245 M26.128,38.38
				c0,0,0.591-0.011,1.02-0.154c0.174-0.058,0.346-0.124,0.506-0.208c0.137-0.069,0.264-0.147,0.385-0.24
				c0.201-0.143,0.377-0.312,0.524-0.503c0.128-0.167,0.235-0.346,0.315-0.54c0.106-0.256,0.166-0.535,0.166-0.822
				c0-0.475-0.156-0.92-0.43-1.297c-0.157-0.218-0.35-0.414-0.576-0.574c-0.506-0.379-1.169-0.604-1.889-0.604
				c-0.231,0-0.461,0.021-0.676,0.066c-0.455,0.097-0.871,0.279-1.214,0.537c-0.308,0.224-0.559,0.504-0.733,0.824
				c-0.172,0.316-0.271,0.674-0.271,1.047c0,0.372,0.099,0.729,0.271,1.046c0.348,0.63,1.002,1.118,1.795,1.316
				c0.119,0.033,0.24,0.056,0.363,0.069C25.83,38.368,25.976,38.38,26.128,38.38 M28.459,21.433l-0.071,0.001l-0.35,0H27.63h-2.957
				H23.95l-0.1-0.001c-0.803,0-1.322,0.546-1.322,1.391v1.963v4.8c0,0.042,0.039,1.764-0.799,3.885
				c-0.07,0.175-0.148,0.358-0.232,0.545c-0.008,0.018-0.015,0.036-0.022,0.055c-0.404,1.104-0.564,2.932,0.312,4.447
				c0.365,0.631,0.872,1.143,1.507,1.521c0.463,0.272,0.984,0.472,1.551,0.596c0.021,0.004,0.042,0.008,0.063,0.011
				c0,0,0.317,0.043,0.603,0.074l0.073,0.007c0.095,0.009,0.181,0.017,0.25,0.02c0.055,0.003,0.114,0.003,0.182,0.003
				c0.323,0,0.83-0.016,0.83-0.016c0.034-0.001,0.067-0.004,0.101-0.01c0.021-0.003,0.042-0.007,0.062-0.011
				c0.133-0.019,0.262-0.043,0.384-0.066c0.362-0.076,0.683-0.172,0.962-0.291c0.354-0.139,0.698-0.325,1.001-0.546
				c0.521-0.38,0.938-0.862,1.24-1.431c0.79-1.493,0.617-3.255,0.229-4.311c-0.079-0.183-0.139-0.319-0.191-0.45
				c-0.897-2.191-0.856-3.99-0.856-4.008v-4.825v-1.963C29.778,21.979,29.26,21.433,28.459,21.433L28.459,21.433z M26.12,37.568
				c-0.101,0-0.201-0.009-0.307-0.026c-0.119-0.014-0.197-0.028-0.274-0.05c-0.583-0.146-1.061-0.49-1.302-0.927
				c-0.111-0.206-0.169-0.427-0.169-0.653c0-0.224,0.06-0.452,0.172-0.659c0.116-0.212,0.283-0.399,0.497-0.555
				c0.255-0.191,0.564-0.327,0.905-0.399c0.153-0.032,0.325-0.049,0.507-0.049c0.524,0,1.022,0.157,1.402,0.441
				c0.164,0.116,0.293,0.246,0.404,0.4c0.181,0.25,0.276,0.533,0.276,0.821c0,0.173-0.035,0.345-0.104,0.51
				c-0.05,0.123-0.119,0.239-0.21,0.358c-0.098,0.126-0.216,0.24-0.35,0.334c-0.102,0.077-0.186,0.129-0.282,0.178
				c-0.11,0.058-0.233,0.108-0.396,0.162C26.659,37.533,26.277,37.564,26.12,37.568L26.12,37.568z"/>
		</g>
		<g>
			<path fill="#FFFFFF" d="M25.629,27.287c-0.423,0-0.768-0.382-0.768-0.853v-8.05c0-0.469,0.344-0.851,0.768-0.851h1.05
				c0.421,0,0.765,0.382,0.765,0.851v8.05c0,0.47-0.343,0.853-0.765,0.853H25.629z"/>
			<path d="M26.679,17.892c0.225,0,0.406,0.22,0.406,0.492v8.05c0,0.271-0.182,0.494-0.406,0.494h-1.05
				c-0.226,0-0.409-0.223-0.409-0.494v-8.05c0-0.272,0.184-0.492,0.409-0.492H26.679 M26.679,17.175h-1.05
				c-0.621,0-1.126,0.542-1.126,1.209v8.05c0,0.667,0.505,1.211,1.126,1.211h1.05c0.619,0,1.123-0.543,1.123-1.211v-8.05
				C27.802,17.717,27.298,17.175,26.679,17.175L26.679,17.175z"/>
		</g>
	</g>
	<path d="M21.56,2.457l-0.2,0.11c0.1,0.28,0.05,0.54-0.11,0.62c-0.11,0.06-0.24,0.03-0.37-0.06c-0.01,0-0.02-0.01-0.03-0.02
		c-0.02,0-0.04-0.01-0.04-0.01c-0.18-0.04-0.35,0.1-0.43,0.14c-0.07,0.03-0.22,0.38-0.18,0.56c0.04,0.18-0.15,0.27-0.15,0.27
		l-1.09,0.55c-0.08,0.05-0.18,0.02-0.22-0.05c0,0-0.16-0.32-0.33-0.63c-0.05-0.08-0.09-0.17-0.13-0.24
		c-0.01-0.01-0.02-0.03-0.03-0.04c-0.11-0.2-0.19-0.35-0.19-0.35l-0.43-0.82c-0.14-0.28-0.03-0.63,0.25-0.77l2.6-1.35
		c0.28-0.15,0.62-0.04,0.77,0.24l0.56,1.08C21.95,1.966,21.84,2.316,21.56,2.457z"/>
	<path d="M18.25,3.657c-0.02-0.03-0.04-0.06-0.06-0.09l-0.13-0.26C18.06,3.307,18.14,3.457,18.25,3.657z"/>
	<path d="M34.55,3.564c-0.147,0.281-0.491,0.391-0.771,0.245l-2.601-1.351c-0.28-0.146-0.39-0.492-0.244-0.771l0.561-1.078
		c0.145-0.281,0.49-0.391,0.771-0.245l2.6,1.35c0.282,0.146,0.39,0.49,0.245,0.771L34.55,3.564z"/>
</g>
<g>
	<path d="M61.244,21.513c0-0.484,0.11-0.946,0.33-1.387l6.601-13.895h-5.644c-0.594,0-0.892-0.286-0.892-0.858V2.601
		c0-0.594,0.298-0.892,0.892-0.892h10.165c0.595,0,0.892,0.298,0.892,0.892v2.607c0,0.396-0.11,0.858-0.33,1.386l-6.601,13.862
		h6.271c0.594,0,0.892,0.297,0.892,0.892v2.771c0,0.595-0.298,0.892-0.892,0.892H62.135c-0.594,0-0.891-0.297-0.891-0.892V21.513z"
		/>
	<path d="M76.325,2.601c0-0.594,0.297-0.892,0.891-0.892h3.201c0.572,0,0.858,0.298,0.858,0.892V24.12
		c0,0.595-0.286,0.892-0.858,0.892h-3.201c-0.594,0-0.891-0.297-0.891-0.892V2.601z"/>
	<path d="M85.069,25.011c-0.572,0-0.858-0.286-0.858-0.858V2.601c0-0.594,0.286-0.892,0.858-0.892h5.116
		c2.882,0,4.896,0.6,6.04,1.799c1.144,1.199,1.716,3.416,1.716,6.65c0,3.19-0.572,5.386-1.716,6.585
		c-1.145,1.199-3.158,1.799-6.04,1.799h-1.023v5.61c0,0.572-0.297,0.858-0.892,0.858H85.069z M90.186,14.12
		c1.1,0,1.826-0.264,2.178-0.792c0.353-0.528,0.528-1.584,0.528-3.169c0-1.584-0.176-2.64-0.528-3.168
		c-0.352-0.528-1.078-0.792-2.178-0.792h-1.023v7.921H90.186z"/>
	<path d="M101.141,25.011c-0.572,0-0.858-0.286-0.858-0.858V2.601c0-0.594,0.286-0.892,0.858-0.892h5.116
		c2.882,0,4.896,0.6,6.04,1.799c1.144,1.199,1.716,3.416,1.716,6.65c0,3.19-0.572,5.386-1.716,6.585
		c-1.145,1.199-3.158,1.799-6.04,1.799h-1.023v5.61c0,0.572-0.297,0.858-0.892,0.858H101.141z M106.257,14.12
		c1.1,0,1.826-0.264,2.178-0.792c0.353-0.528,0.528-1.584,0.528-3.169c0-1.584-0.176-2.64-0.528-3.168
		c-0.352-0.528-1.078-0.792-2.178-0.792h-1.023v7.921H106.257z"/>
	<path d="M121.238,15.341v5.115h5.875c0.595,0,0.892,0.297,0.892,0.892v2.771c0,0.595-0.297,0.892-0.892,0.892h-9.901
		c-0.572,0-0.858-0.297-0.858-0.892V2.601c0-0.594,0.286-0.892,0.858-0.892h9.77c0.594,0,0.892,0.298,0.892,0.892v2.772
		c0,0.572-0.298,0.858-0.892,0.858h-5.743v4.72h5.446c0.594,0,0.891,0.297,0.891,0.891v2.607c0,0.594-0.297,0.892-0.891,0.892
		H121.238z"/>
	<path d="M136.584,1.709c2.86,0,4.868,0.589,6.023,1.767c1.155,1.177,1.732,3.295,1.732,6.353c0,2.003-0.286,3.565-0.857,4.688
		c-0.572,1.122-1.452,1.914-2.641,2.376l3.234,7.03c0.33,0.726,0.132,1.089-0.594,1.089h-3.234c-0.595,0-1.002-0.253-1.222-0.759
		l-2.806-6.535h-0.924v6.402c0,0.595-0.297,0.892-0.892,0.892h-3.201c-0.572,0-0.858-0.297-0.858-0.892V2.601
		c0-0.594,0.286-0.892,0.858-0.892H136.584z M136.617,13.426c1.078,0,1.793-0.253,2.146-0.759c0.352-0.506,0.527-1.452,0.527-2.839
		c0-1.408-0.181-2.365-0.544-2.871s-1.095-0.759-2.195-0.759h-1.254v7.228H136.617z"/>
	<path d="M67.878,27.709c2.86,0,4.868,0.589,6.023,1.767c1.155,1.177,1.732,3.295,1.732,6.353c0,2.003-0.286,3.565-0.857,4.688
		c-0.572,1.122-1.452,1.914-2.641,2.376l3.234,7.03c0.33,0.726,0.132,1.089-0.594,1.089h-3.234c-0.595,0-1.002-0.253-1.222-0.759
		l-2.806-6.535h-0.924v6.402c0,0.595-0.297,0.892-0.892,0.892h-3.201c-0.572,0-0.858-0.297-0.858-0.892V28.601
		c0-0.594,0.286-0.892,0.858-0.892H67.878z M67.911,39.426c1.078,0,1.793-0.253,2.146-0.759c0.352-0.506,0.527-1.452,0.527-2.839
		c0-1.408-0.181-2.365-0.544-2.871s-1.095-0.759-2.195-0.759h-1.254v7.228H67.911z"/>
	<path d="M82.793,41.341v5.115h5.875c0.595,0,0.892,0.297,0.892,0.892v2.771c0,0.595-0.297,0.892-0.892,0.892h-9.901
		c-0.572,0-0.858-0.297-0.858-0.892V28.601c0-0.594,0.286-0.892,0.858-0.892h9.77c0.594,0,0.892,0.298,0.892,0.892v2.772
		c0,0.572-0.298,0.858-0.892,0.858h-5.743v4.72h5.446c0.594,0,0.891,0.297,0.891,0.891v2.607c0,0.594-0.297,0.892-0.891,0.892
		H82.793z"/>
	<path d="M101.703,49.724c-1.254,1.056-2.915,1.584-4.983,1.584c-1.87,0-3.29-0.154-4.258-0.462c-0.374-0.11-0.633-0.236-0.775-0.38
		c-0.144-0.143-0.215-0.368-0.215-0.676v-2.607c0-0.683,0.374-0.902,1.122-0.66c0.771,0.241,1.738,0.362,2.904,0.362
		c1.959,0,2.938-0.715,2.938-2.145c0-0.66-0.187-1.232-0.561-1.717s-1.145-1.144-2.311-1.98c-1.298-0.946-2.3-1.969-3.004-3.069
		c-0.704-1.1-1.056-2.53-1.056-4.29c0-2.2,0.512-3.802,1.534-4.803c1.023-1.001,2.757-1.502,5.198-1.502
		c1.299,0,2.454,0.11,3.466,0.33c0.616,0.154,0.924,0.518,0.924,1.09v2.673c0,0.616-0.385,0.836-1.154,0.66
		c-0.793-0.198-1.64-0.297-2.542-0.297c-0.836,0-1.43,0.154-1.782,0.462c-0.352,0.309-0.528,0.804-0.528,1.485
		c0,1.188,0.902,2.465,2.707,3.828c1.518,1.167,2.607,2.267,3.268,3.301s0.99,2.365,0.99,3.994
		C103.585,47.062,102.957,48.667,101.703,49.724z"/>
	<path d="M116.487,46.588c0.66-0.132,0.99,0.121,0.99,0.76v2.541c0,0.33-0.065,0.566-0.198,0.71
		c-0.132,0.143-0.352,0.258-0.66,0.346c-1.056,0.242-2.123,0.363-3.201,0.363c-2.046,0-3.631-0.33-4.753-0.99
		s-1.969-1.859-2.541-3.598s-0.858-4.213-0.858-7.426c0-3.168,0.281-5.616,0.842-7.344c0.562-1.727,1.397-2.921,2.509-3.581
		s2.679-0.99,4.703-0.99c0.924,0,1.969,0.121,3.135,0.363c0.572,0.088,0.858,0.44,0.858,1.057v2.574c0,0.594-0.33,0.847-0.99,0.759
		c-0.66-0.154-1.342-0.23-2.046-0.23c-1.584,0-2.641,0.479-3.169,1.436c-0.527,0.957-0.792,2.942-0.792,5.957
		c0,3.059,0.27,5.077,0.809,6.057c0.539,0.979,1.623,1.469,3.251,1.469C115.123,46.82,115.827,46.743,116.487,46.588z"/>
	<path d="M121.387,49.691c-1.111-1.078-1.667-2.86-1.667-5.347V28.601c0-0.594,0.297-0.892,0.892-0.892h3.201
		c0.572,0,0.858,0.298,0.858,0.892v15.083c0,1.145,0.148,1.947,0.445,2.409s0.819,0.693,1.567,0.693s1.271-0.231,1.568-0.693
		c0.297-0.462,0.445-1.265,0.445-2.409V28.601c0-0.594,0.286-0.892,0.858-0.892h3.201c0.594,0,0.891,0.298,0.891,0.892v15.743
		c0,2.486-0.556,4.269-1.666,5.347c-1.111,1.078-2.877,1.617-5.298,1.617C124.264,51.308,122.498,50.769,121.387,49.691z"/>
	<path d="M141.203,41.341v5.115h5.875c0.595,0,0.892,0.297,0.892,0.892v2.771c0,0.595-0.297,0.892-0.892,0.892h-9.901
		c-0.572,0-0.858-0.297-0.858-0.892V28.601c0-0.594,0.286-0.892,0.858-0.892h9.77c0.594,0,0.892,0.298,0.892,0.892v2.772
		c0,0.572-0.298,0.858-0.892,0.858h-5.743v4.72h5.446c0.594,0,0.891,0.297,0.891,0.891v2.607c0,0.594-0.297,0.892-0.891,0.892
		H141.203z"/>
</g>
</svg>
